<svg xmlns="http://www.w3.org/2000/svg" viewBox="0 0 200 100">
  <g><path d="M39.66 66.13Q37.98 66.13 36.35 65.84Q34.72 65.55 33.23 64.83Q32.7 64.59 32.61 64.28Q32.51 63.97 32.51 63.01Q32.51 61.18 32.61 59.84Q32.7 58.5 32.75 57.92Q32.8 57.15 33.14 57.15Q33.47 57.15 33.47 57.68Q33.47 58.02 33.5 58.47Q33.52 58.93 33.62 59.46Q33.9 60.8 34.58 61.74Q35.25 62.67 36.23 63.25Q37.22 63.82 38.37 64.09Q39.52 64.35 40.72 64.35Q42.45 64.35 43.74 63.78Q45.04 63.2 45.88 62.31Q46.72 61.42 47.15 60.27Q47.58 59.12 47.58 57.97Q47.58 56.72 47.3 55.69Q47.01 54.66 46.36 53.67Q45.71 52.69 44.66 51.66Q43.6 50.62 42.06 49.33L39.9 47.55Q37.98 45.97 36.78 44.62Q35.58 43.28 34.89 42.01Q34.19 40.74 33.93 39.56Q33.66 38.38 33.66 37.14Q33.66 35.22 34.36 33.63Q35.06 32.05 36.35 30.9Q37.65 29.74 39.47 29.12Q41.3 28.5 43.6 28.5Q44.99 28.5 46.07 28.62Q47.15 28.74 48.06 28.98Q48.74 29.12 49.1 29.17Q49.46 29.22 49.74 29.22Q50.22 29.22 50.22 29.55Q50.22 29.74 50.13 30.97Q50.03 32.19 50.03 34.64Q50.03 35.74 49.7 35.74Q49.46 35.74 49.41 35.58Q49.36 35.41 49.31 35.12Q49.26 34.69 49.1 33.9Q48.93 33.1 48.69 32.72Q48.59 32.53 48.26 32.1Q47.92 31.66 47.22 31.23Q46.53 30.8 45.42 30.49Q44.32 30.18 42.69 30.18Q40.19 30.18 38.49 31.64Q36.78 33.1 36.78 35.74Q36.78 36.75 37.05 37.64Q37.31 38.53 37.98 39.44Q38.66 40.35 39.78 41.41Q40.91 42.46 42.64 43.81L43.98 44.86Q46.1 46.54 47.46 47.98Q48.83 49.42 49.62 50.74Q50.42 52.06 50.7 53.38Q50.99 54.7 50.99 56.14Q50.99 56.86 50.82 57.87Q50.66 58.88 50.2 59.98Q49.74 61.09 48.95 62.17Q48.16 63.25 46.91 64.11Q45.38 65.22 43.5 65.67Q41.63 66.13 39.66 66.13ZM64.72 35.02L73.94 59.6Q74.61 58.02 75.57 55.64Q76.53 53.26 77.58 50.6Q78.64 47.94 79.72 45.18Q80.8 42.42 81.71 39.99Q82.62 37.57 83.27 35.7Q83.92 33.82 84.21 32.96Q84.4 32.43 84.52 31.95Q84.64 31.47 84.64 31.14Q84.64 30.85 84.52 30.54Q84.4 30.22 84.02 30.03Q83.58 29.89 83.08 29.86Q82.58 29.84 82.19 29.84Q81.66 29.84 81.66 29.55Q81.66 29.17 82.72 29.17Q84.16 29.17 85.58 29.24Q86.99 29.31 87.42 29.31Q87.52 29.31 87.93 29.29Q88.34 29.26 88.89 29.24Q89.44 29.22 90.04 29.19Q90.64 29.17 91.17 29.17Q91.98 29.17 91.98 29.5Q91.98 29.84 91.41 29.84Q91.17 29.84 90.47 29.91Q89.78 29.98 89.1 30.42Q88.86 30.56 88.6 30.82Q88.34 31.09 88.02 31.59Q87.71 32.1 87.33 32.91Q86.94 33.73 86.46 34.93Q86.27 35.46 85.74 36.7Q85.22 37.95 84.5 39.73Q83.78 41.5 82.89 43.62Q82 45.73 81.09 47.94Q78.88 53.22 77.3 56.96Q75.71 60.7 74.9 62.48Q73.89 64.64 73.55 65.38Q73.22 66.13 72.88 66.13Q72.45 66.13 72.14 65.5Q71.82 64.88 71.15 63.15L59.39 33.73Q59.01 32.72 58.65 32.1Q58.29 31.47 57.9 31.06Q57.52 30.66 57.04 30.44Q56.56 30.22 55.94 30.03Q55.41 29.89 54.88 29.86Q54.35 29.84 54.11 29.84Q53.73 29.84 53.73 29.5Q53.73 29.17 54.98 29.17Q55.84 29.17 56.75 29.19Q57.66 29.22 58.43 29.24Q59.2 29.26 59.78 29.29Q60.35 29.31 60.59 29.31Q60.98 29.31 62.32 29.24Q63.66 29.17 65.06 29.17Q66.35 29.17 66.35 29.5Q66.35 29.84 65.87 29.84Q65.49 29.84 64.94 29.89Q64.38 29.94 64.05 30.08Q63.66 30.27 63.54 30.54Q63.42 30.8 63.42 31.04Q63.42 31.52 63.81 32.58Q64.19 33.63 64.72 35.02ZM99.14 51.54L99.14 43.09Q99.14 40.3 99.14 38.53Q99.14 36.75 99.14 35.67Q99.14 34.59 99.11 33.94Q99.09 33.3 99.04 32.72Q98.94 31.47 98.56 30.85Q98.18 30.22 96.98 29.98Q96.69 29.89 96.18 29.86Q95.68 29.84 95.34 29.84Q94.96 29.84 94.96 29.55Q94.96 29.17 95.73 29.17Q96.54 29.17 97.46 29.19Q98.37 29.22 99.16 29.24Q99.95 29.26 100.5 29.29Q101.06 29.31 101.15 29.31Q101.34 29.31 102.04 29.29Q102.74 29.26 103.62 29.24Q104.51 29.22 105.38 29.19Q106.24 29.17 106.82 29.17Q109.12 29.17 111.4 29.53Q113.68 29.89 115.6 31.28Q116.03 31.62 116.61 32.22Q117.18 32.82 117.69 33.63Q118.19 34.45 118.55 35.5Q118.91 36.56 118.91 37.81Q118.91 40.5 117.62 43.21Q116.32 45.92 113.1 48.9Q116.08 52.69 118.53 55.81Q120.98 58.93 123.09 61.18Q125.06 63.25 126.54 63.87Q128.03 64.5 128.94 64.64Q129.62 64.74 130.1 64.76Q130.58 64.78 130.82 64.78Q131.25 64.78 131.25 65.07Q131.25 65.31 131.01 65.38Q130.77 65.46 130.1 65.46L126.69 65.46Q124.67 65.46 123.57 65.26Q122.46 65.07 121.55 64.54Q120.02 63.73 118.58 61.98Q117.14 60.22 115.07 57.49Q114.3 56.48 113.54 55.42Q112.77 54.37 112.07 53.41Q111.38 52.45 110.78 51.66Q110.18 50.86 109.84 50.38Q109.55 50.1 109.22 50.1L103.31 50Q102.98 50 102.98 50.38L102.98 51.54Q102.98 54.99 103 57.7Q103.02 60.42 103.22 61.95Q103.31 63.01 103.65 63.73Q103.98 64.45 105.09 64.59Q105.62 64.69 106.26 64.74Q106.91 64.78 107.25 64.78Q107.63 64.78 107.63 65.07Q107.63 65.46 106.86 65.46Q105.86 65.46 104.85 65.43Q103.84 65.41 103 65.38Q102.16 65.36 101.61 65.34Q101.06 65.31 100.96 65.31Q100.96 65.31 100.46 65.34Q99.95 65.36 99.23 65.38Q98.51 65.41 97.74 65.43Q96.98 65.46 96.45 65.46Q95.68 65.46 95.68 65.07Q95.68 64.78 96.06 64.78Q96.4 64.78 96.78 64.74Q97.17 64.69 97.5 64.59Q98.22 64.45 98.49 63.73Q98.75 63.01 98.9 61.95Q99.09 60.42 99.11 57.7Q99.14 54.99 99.14 51.54ZM102.98 31.57L102.98 47.26Q102.98 47.65 103.31 47.84Q103.84 48.18 105.3 48.39Q106.77 48.61 108.35 48.61Q109.22 48.61 110.18 48.44Q111.14 48.27 111.95 47.7Q113.2 46.83 114.04 44.94Q114.88 43.04 114.88 40.3Q114.88 35.79 112.67 33.25Q110.46 30.7 106.58 30.7Q105.47 30.7 104.61 30.8Q103.74 30.9 103.36 30.99Q102.98 31.14 102.98 31.57ZM136 35.94L136.62 58.93Q136.67 60.42 136.79 61.4Q136.91 62.38 137.13 63.03Q137.34 63.68 137.68 64.02Q138.02 64.35 138.5 64.5Q139.17 64.69 139.86 64.74Q140.56 64.78 140.9 64.78Q141.28 64.78 141.28 65.07Q141.28 65.46 140.42 65.46Q138.35 65.46 137.01 65.38Q135.66 65.31 135.33 65.31Q134.99 65.31 133.67 65.38Q132.35 65.46 130.72 65.46Q129.95 65.46 129.95 65.07Q129.95 64.78 130.34 64.78Q130.62 64.78 131.2 64.74Q131.78 64.69 132.3 64.5Q133.22 64.26 133.48 62.96Q133.74 61.66 133.74 58.4L133.79 30.9Q133.79 29.5 133.91 29Q134.03 28.5 134.32 28.5Q134.61 28.5 135.11 29.07Q135.62 29.65 136 30.03Q136.29 30.32 137.66 31.83Q139.02 33.34 141.14 35.6Q143.25 37.86 145.86 40.69Q148.48 43.52 151.26 46.5Q153.04 48.42 154.84 50.38Q156.64 52.35 158.22 54.08Q159.81 55.81 161.01 57.13Q162.21 58.45 162.78 59.02L162.26 34.64Q162.21 32.29 161.85 31.33Q161.49 30.37 160.38 30.08Q159.71 29.94 159.02 29.89Q158.32 29.84 158.03 29.84Q157.65 29.84 157.65 29.5Q157.65 29.17 158.61 29.17Q159.42 29.17 160.22 29.19Q161.01 29.22 161.7 29.24Q162.4 29.26 162.9 29.29Q163.41 29.31 163.6 29.31Q163.98 29.31 165.09 29.24Q166.19 29.17 167.68 29.17Q168.54 29.17 168.54 29.5Q168.54 29.84 168.02 29.84Q167.82 29.84 167.56 29.86Q167.3 29.89 166.86 29.98Q165.66 30.22 165.38 31.16Q165.09 32.1 165.09 34.26L164.99 62.38Q164.99 63.58 164.97 64.26Q164.94 64.93 164.9 65.26Q164.85 65.6 164.78 65.7Q164.7 65.79 164.56 65.79Q164.42 65.79 164.2 65.67Q163.98 65.55 163.6 65.22Q163.22 64.88 162.62 64.28Q162.02 63.68 161.06 62.72Q160.86 62.53 159.59 61.26Q158.32 59.98 156.5 58.09Q154.67 56.19 152.56 53.98Q150.45 51.78 148.53 49.71Q146.42 47.46 144.42 45.27Q142.43 43.09 140.75 41.22Q139.07 39.34 137.82 37.98Q136.58 36.61 136 35.94Z"/></g>
</svg>